<svg width="30" height="30" viewBox="0 0 30 30" fill="none" xmlns="http://www.w3.org/2000/svg">
<circle cx="15" cy="15" r="15" fill="#F0E8FF"/>
<path d="M11.497 9.5C11.1972 9.5 10.9973 9.8 10.9973 10V12.5H9.99797V10C9.99797 9.7 9.79811 9.5 9.49831 9.5C9.19851 9.5 8.99865 9.8 8.99865 10V12.5H7.99932V10C7.99932 9.7 7.79946 9.5 7.49966 9.5C7.19986 9.5 7 9.8 7 10V13.3C7 14.2 7.69953 14.9 8.49899 15V22C8.49899 22.6 8.89872 23 9.49831 23C10.0979 23 10.4976 22.6 10.4976 22V15C11.2971 14.9 11.9966 14.2 11.9966 13.3V10C11.9966 9.8 11.7968 9.5 11.497 9.5ZM13.4956 10V16H14.4949V22C14.4949 22.6 14.8947 23 15.4943 23C16.0938 23 16.4936 22.6 16.4936 22V7C14.7947 7 13.4956 8.3 13.4956 10ZM20.4909 9C19.0918 9 17.9926 10.5 17.9926 12.3C17.8926 13.5 18.4922 14.6 19.4915 15.3V22C19.4915 22.6 19.8913 23 20.4909 23C21.0905 23 21.4902 22.6 21.4902 22V15.3C22.4895 14.6 23.0891 13.5 22.9892 12.3C22.9892 10.5 21.8899 9 20.4909 9Z" fill="#AF7EFF"/>
</svg>
